<svg xmlns="http://www.w3.org/2000/svg" xmlns:xlink="http://www.w3.org/1999/xlink" version="1.1" width="1000" height="1000" viewBox="0 0 1000 1000" xml:space="preserve">
<desc>Created with Fabric.js 3.5.0</desc>
<defs>
</defs>
<rect x="0" y="0" width="100%" height="100%" fill="#fff"/>
<g transform="matrix(1 0 0 2.1146 500 523.6315)" id="165537">
<g style="" vector-effect="non-scaling-stroke">
		<g transform="matrix(1 0 0 1 -43.9985 0)">
<path style="stroke: none; stroke-width: 1; stroke-dasharray: none; stroke-linecap: butt; stroke-dashoffset: 0; stroke-linejoin: miter; stroke-miterlimit: 4; is-custom-font: none; font-file-url: none; fill: rgb(255,255,255); fill-rule: nonzero; opacity: 1;" transform=" translate(-15.0015, -15)" d="M 30.003 13.3516 V 15.8242 C 30.003 20.1374 28.6474 23.5852 25.9362 26.1676 C 23.2527 28.7225 19.836 30 15.6862 30 C 11.1768 30 7.42813 28.5577 4.44028 25.6731 C 1.48009 22.7885 0 19.2445 0 15.0412 C 0 10.8379 1.46626 7.28022 4.39878 4.36813 C 7.35897 1.45604 10.9693 0 15.2297 0 C 17.9409 0 20.417 0.604396 22.6579 1.81319 C 24.9264 3.02198 26.6832 4.61538 27.9281 6.59341 L 22.2844 9.80769 C 21.6481 8.81868 20.6936 8.00824 19.421 7.37637 C 18.1761 6.74451 16.7652 6.42857 15.1882 6.42857 C 12.726 6.42857 10.6788 7.23901 9.04655 8.85989 C 7.44196 10.4808 6.63967 12.5549 6.63967 15.0824 C 6.63967 17.5824 7.46963 19.6291 9.12954 21.2225 C 10.7895 22.7885 13.0027 23.5714 15.7692 23.5714 C 19.6147 23.5714 22.0907 22.0879 23.1973 19.1209 H 15.4372 V 13.3516 H 30.003 Z" stroke-linecap="round"/>
</g>
		<g transform="matrix(1 0 0 1 -14.6718 0)">
<path style="stroke: none; stroke-width: 1; stroke-dasharray: none; stroke-linecap: butt; stroke-dashoffset: 0; stroke-linejoin: miter; stroke-miterlimit: 4; is-custom-font: none; font-file-url: none; fill: rgb(255,255,255); fill-rule: nonzero; opacity: 1;" transform=" translate(-44.3282, -15)" d="M 44.7432 0.576923 C 47.5927 0.576923 49.9996 1.53846 51.9638 3.46154 C 53.9281 5.38462 54.9102 7.71978 54.9102 10.467 C 54.9102 13.2143 53.9281 15.5495 51.9638 17.4725 C 49.9996 19.3956 47.5927 20.3571 44.7432 20.3571 H 40.3859 V 29.4231 H 33.7462 V 0.576923 H 44.7432 Z M 44.7432 14.1758 C 45.7668 14.1758 46.6106 13.8187 47.2746 13.1044 C 47.9385 12.3901 48.2705 11.511 48.2705 10.467 C 48.2705 9.42308 47.9385 8.54396 47.2746 7.82967 C 46.6106 7.11538 45.7668 6.75824 44.7432 6.75824 H 40.3859 V 14.1758 H 44.7432 Z" stroke-linecap="round"/>
</g>
		<g transform="matrix(1 0 0 1 7.5328 0)">
<path style="stroke: none; stroke-width: 1; stroke-dasharray: none; stroke-linecap: butt; stroke-dashoffset: 0; stroke-linejoin: miter; stroke-miterlimit: 4; is-custom-font: none; font-file-url: none; fill: rgb(255,255,255); fill-rule: nonzero; opacity: 1;" transform=" translate(-66.5328, -15)" d="M 77.3223 0.576923 V 6.92308 H 69.8527 V 29.4231 H 63.213 V 6.92308 H 55.7434 V 0.576923 H 77.3223 Z" stroke-linecap="round"/>
</g>
		<g transform="matrix(1 0 0 1 27.0466 2.1016)">
<path style="stroke: none; stroke-width: 1; stroke-dasharray: none; stroke-linecap: butt; stroke-dashoffset: 0; stroke-linejoin: miter; stroke-miterlimit: 4; is-custom-font: none; font-file-url: none; fill: rgb(255,255,255); fill-rule: nonzero; opacity: 1;" transform=" translate(-86.0466, -17.1016)" d="M 78.162 20.0687 V 14.1346 H 93.9312 V 20.0687 H 78.162 Z" stroke-linecap="round"/>
</g>
		<g transform="matrix(1 0 0 1 48.6255 0.2884)">
<path style="stroke: none; stroke-width: 1; stroke-dasharray: none; stroke-linecap: butt; stroke-dashoffset: 0; stroke-linejoin: miter; stroke-miterlimit: 4; is-custom-font: none; font-file-url: none; fill: rgb(255,255,255); fill-rule: nonzero; opacity: 1;" transform=" translate(-107.6255, -15.2885)" d="M 111.817 12.2802 C 113.67 12.9121 115.164 13.9423 116.299 15.3709 C 117.433 16.772 118 18.4341 118 20.3571 C 118 23.3791 116.976 25.7418 114.929 27.4451 C 112.882 29.1484 110.378 30 107.418 30 C 105.122 30 103.061 29.478 101.235 28.4341 C 99.4366 27.3901 98.1087 25.8516 97.251 23.8187 L 102.978 20.522 C 103.697 22.5549 105.177 23.5714 107.418 23.5714 C 108.718 23.5714 109.7 23.2692 110.364 22.6648 C 111.028 22.0604 111.36 21.2912 111.36 20.3571 C 111.36 19.4231 111.028 18.6538 110.364 18.0495 C 109.7 17.4451 108.718 17.1429 107.418 17.1429 H 106.049 L 103.517 13.3929 L 108.787 6.75824 H 98.164 V 0.576923 H 116.838 V 5.93407 L 111.817 12.2802 Z" stroke-linecap="round"/>
</g>
</g>
</g>
<g transform="matrix(1 0 0 1 313.0426 457.4925)" style="" id="708930">
		
<path xml:space="preserve" font-family="Bungee Shade" font-size="27" font-weight="normal" style="stroke: none; stroke-width: 0; stroke-dasharray: none; stroke-linecap: butt; stroke-dashoffset: 0; stroke-linejoin: miter; stroke-miterlimit: 4; is-custom-font: none; font-file-url: none; fill: rgb(9,33,74); fill-rule: nonzero; opacity: 1; white-space: pre;" d="M-22.53 7.48L-26.01 10.40Q-26.96 11.21-28.66 11.65Q-30.36 12.10-33.03 12.10L-33.03 12.10Q-35.68 12.10-37.37 11.55Q-39.06 10.99-40.01 10.07Q-40.97 9.16-41.34 7.97Q-41.70 6.78-41.70 5.51L-41.70 5.51L-41.70-2.89Q-41.70-4.13-41.35-5.19Q-41.00-6.26-40.08-7.02L-40.08-7.02L-36.57-9.93Q-35.63-10.74-33.94-11.19Q-32.25-11.63-29.55-11.63L-29.55-11.63Q-26.91-11.63-25.22-11.20Q-23.53-10.77-22.57-10.00Q-21.61-9.23-21.26-8.16Q-20.91-7.10-20.91-5.83L-20.91-5.83L-20.91 3.38Q-20.91 4.62-21.26 5.67Q-21.61 6.73-22.53 7.48L-22.53 7.48ZM-21.18 3.38L-21.18 3.38L-21.18-5.83Q-21.18-7.07-21.55-8.08Q-21.91-9.10-22.84-9.82Q-23.77-10.55-25.41-10.96Q-27.04-11.36-29.55-11.36L-29.55-11.36Q-32.06-11.36-33.71-10.96Q-35.36-10.55-36.29-9.82Q-37.22-9.10-37.58-8.08Q-37.95-7.07-37.95-5.83L-37.95-5.83L-37.95 3.38Q-37.95 4.62-37.58 5.63Q-37.22 6.65-36.29 7.36Q-35.36 8.08-33.71 8.48Q-32.06 8.89-29.55 8.89L-29.55 8.89Q-27.04 8.89-25.41 8.48Q-23.77 8.08-22.84 7.36Q-21.91 6.65-21.55 5.63Q-21.18 4.62-21.18 3.38ZM-24.12-5.21L-24.12 2.76Q-24.12 4.38-25.29 5.39Q-26.45 6.40-29.61 6.40L-29.61 6.40Q-32.76 6.40-33.90 5.39Q-35.03 4.38-35.03 2.76L-35.03 2.76L-35.03-5.21Q-35.03-6.83-33.90-7.84Q-32.76-8.85-29.61-8.85L-29.61-8.85Q-26.45-8.85-25.29-7.84Q-24.12-6.83-24.12-5.21L-24.12-5.21ZM-34.76-5.21L-34.76 2.76Q-34.76 4.27-33.68 5.20Q-32.60 6.13-29.61 6.13L-29.61 6.13Q-26.61 6.13-25.50 5.20Q-24.39 4.27-24.39 2.76L-24.39 2.76L-24.39-5.21Q-24.39-6.72-25.50-7.65Q-26.61-8.58-29.61-8.58L-29.61-8.58Q-32.60-8.58-33.68-7.65Q-34.76-6.72-34.76-5.21L-34.76-5.21ZM-31.82 2.41L-31.82 2.41L-31.82-4.86Q-31.82-5.37-31.41-5.73Q-31.01-6.10-29.55-6.10L-29.55-6.10Q-28.09-6.10-27.69-5.73Q-27.28-5.37-27.28-4.86L-27.28-4.86L-27.28 2.41Q-27.28 2.95-27.69 3.31Q-28.09 3.68-29.55 3.68L-29.55 3.68Q-31.01 3.68-31.41 3.31Q-31.82 2.95-31.82 2.41ZM-31.55-2.70L-31.55 2.41Q-31.55 2.68-31.44 2.88Q-31.33 3.08-31.04 3.22L-31.04 3.22L-31.04-1.91Q-31.04-2.18-31.14-2.39Q-31.25-2.59-31.55-2.70L-31.55-2.70ZM-13.38 11.69L-13.38 11.69L-17.56 11.69Q-18.21 11.69-18.51 11.40Q-18.81 11.10-18.81 10.45L-18.81 10.45L-18.81-7.04Q-18.81-7.39-18.71-7.64Q-18.62-7.88-18.43-8.04L-18.43-8.04L-14.94-10.99Q-14.81-11.09-14.58-11.16Q-14.35-11.23-14.08-11.23L-14.08-11.23L-5.82-11.23Q-3.90-11.23-2.61-10.82Q-1.31-10.42-0.55-9.69Q0.20-8.96 0.51-7.93Q0.82-6.91 0.82-5.69L0.82-5.69L0.82-2.24Q0.82-0.94 0.46 0.13Q0.09 1.19-0.80 1.95L-0.80 1.95L-4.31 4.86Q-4.98 5.43-6.05 5.80Q-7.11 6.16-8.65 6.21L-8.65 6.21L-8.65 7.51Q-8.65 7.86-8.75 8.10Q-8.84 8.35-9.03 8.51L-9.03 8.51L-12.54 11.42Q-12.65 11.53-12.88 11.61Q-13.11 11.69-13.38 11.69ZM-14.08 8.48L-9.90 8.48Q-9.38 8.48-9.15 8.25Q-8.92 8.02-8.92 7.51L-8.92 7.51L-8.92 3.03L-5.82 3.03Q-2.15 3.03-0.80 1.57Q0.55 0.11 0.55-2.24L0.55-2.24L0.55-5.69Q0.55-8.04-0.80-9.50Q-2.15-10.96-5.82-10.96L-5.82-10.96L-14.08-10.96Q-14.59-10.96-14.82-10.73Q-15.05-10.50-15.05-9.99L-15.05-9.99L-15.05 7.51Q-15.05 8.02-14.82 8.25Q-14.59 8.48-14.08 8.48L-14.08 8.48ZM-6.20 0.73L-6.20 0.73L-11.76 0.73L-11.76 6.05L-12.03 6.05L-12.03-8.53L-6.20-8.53Q-4.93-8.53-4.13-8.24Q-3.33-7.96-2.90-7.48Q-2.47-6.99-2.31-6.31Q-2.15-5.64-2.15-4.86L-2.15-4.86L-2.15-2.86Q-2.15-2.08-2.31-1.41Q-2.47-0.75-2.90-0.28Q-3.33 0.19-4.13 0.46Q-4.93 0.73-6.20 0.73ZM-11.76-8.26L-11.76 0.46L-6.20 0.46Q-5.01 0.46-4.27 0.22Q-3.52-0.02-3.12-0.47Q-2.71-0.91-2.57-1.52Q-2.42-2.13-2.42-2.86L-2.42-2.86L-2.42-4.86Q-2.42-5.59-2.57-6.21Q-2.71-6.83-3.12-7.29Q-3.52-7.75-4.27-8.00Q-5.01-8.26-6.20-8.26L-6.20-8.26L-11.76-8.26ZM-8.98-1.83L-8.98-5.91L-6.55-5.91Q-5.76-5.91-5.52-5.50Q-5.28-5.10-5.28-4.59L-5.28-4.59L-5.28-3.16Q-5.28-2.64-5.52-2.24Q-5.76-1.83-6.55-1.83L-6.55-1.83L-8.98-1.83ZM7.74 11.69L7.74 11.69L3.55 11.69Q2.90 11.69 2.61 11.40Q2.31 11.10 2.31 10.45L2.31 10.45L2.31-7.04Q2.31-7.39 2.40-7.64Q2.50-7.88 2.69-8.04L2.69-8.04L6.17-10.99Q6.30-11.09 6.53-11.16Q6.76-11.23 7.03-11.23L7.03-11.23L15.30-11.23Q17.21-11.23 18.51-10.82Q19.80-10.42 20.56-9.69Q21.32-8.96 21.63-7.93Q21.94-6.91 21.94-5.69L21.94-5.69L21.94-2.24Q21.94-0.94 21.57 0.13Q21.21 1.19 20.32 1.95L20.32 1.95L16.81 4.86Q16.13 5.43 15.07 5.80Q14.00 6.16 12.46 6.21L12.46 6.21L12.46 7.51Q12.46 7.86 12.37 8.10Q12.27 8.35 12.08 8.51L12.08 8.51L8.57 11.42Q8.46 11.53 8.23 11.61Q8.01 11.69 7.74 11.69ZM7.03 8.48L11.22 8.48Q11.73 8.48 11.96 8.25Q12.19 8.02 12.19 7.51L12.19 7.51L12.19 3.03L15.30 3.03Q18.97 3.03 20.32 1.57Q21.67 0.11 21.67-2.24L21.67-2.24L21.67-5.69Q21.67-8.04 20.32-9.50Q18.97-10.96 15.30-10.96L15.30-10.96L7.03-10.96Q6.52-10.96 6.29-10.73Q6.06-10.50 6.06-9.99L6.06-9.99L6.06 7.51Q6.06 8.02 6.29 8.25Q6.52 8.48 7.03 8.48L7.03 8.48ZM14.92 0.73L14.92 0.73L9.36 0.73L9.36 6.05L9.09 6.05L9.09-8.53L14.92-8.53Q16.19-8.53 16.98-8.24Q17.78-7.96 18.21-7.48Q18.64-6.99 18.81-6.31Q18.97-5.64 18.97-4.86L18.97-4.86L18.97-2.86Q18.97-2.08 18.81-1.41Q18.64-0.75 18.21-0.28Q17.78 0.19 16.98 0.46Q16.19 0.73 14.92 0.73ZM9.36-8.26L9.36 0.46L14.92 0.46Q16.11 0.46 16.85 0.22Q17.59-0.02 18.00-0.47Q18.40-0.91 18.55-1.52Q18.70-2.13 18.70-2.86L18.70-2.86L18.70-4.86Q18.70-5.59 18.55-6.21Q18.40-6.83 18.00-7.29Q17.59-7.75 16.85-8.00Q16.11-8.26 14.92-8.26L14.92-8.26L9.36-8.26ZM12.14-1.83L12.14-5.91L14.57-5.91Q15.35-5.91 15.59-5.50Q15.84-5.10 15.84-4.59L15.84-4.59L15.84-3.16Q15.84-2.64 15.59-2.24Q15.35-1.83 14.57-1.83L14.57-1.83L12.14-1.83ZM32.87 11.69L32.87 11.69L28.50 11.69Q27.85 11.69 27.55 11.40Q27.26 11.10 27.26 10.45L27.26 10.45L27.26-2.53L23.56-2.53Q22.91-2.53 22.61-2.83Q22.32-3.13 22.32-3.78L22.32-3.78L22.32-7.04Q22.32-7.39 22.41-7.64Q22.50-7.88 22.69-8.04L22.69-8.04L26.18-10.99Q26.31-11.09 26.54-11.16Q26.77-11.23 27.04-11.23L27.04-11.23L41.30-11.23Q41.94-11.23 42.24-10.93Q42.54-10.63 42.54-9.99L42.54-9.99L42.54-6.72Q42.54-6.37 42.44-6.13Q42.35-5.88 42.16-5.72L42.16-5.72L38.65-2.80Q38.54-2.70 38.31-2.62Q38.08-2.53 37.81-2.53L37.81-2.53L37.60-2.53L37.60 7.51Q37.60 7.86 37.50 8.10Q37.41 8.35 37.22 8.51L37.22 8.51L33.71 11.42Q33.60 11.53 33.37 11.61Q33.14 11.69 32.87 11.69ZM31.98 8.48L36.36 8.48Q36.87 8.48 37.10 8.25Q37.33 8.02 37.33 7.51L37.33 7.51L37.33-5.75L41.30-5.75Q41.81-5.75 42.04-5.98Q42.27-6.21 42.27-6.72L42.27-6.72L42.27-9.99Q42.27-10.50 42.04-10.73Q41.81-10.96 41.30-10.96L41.30-10.96L27.04-10.96Q26.53-10.96 26.30-10.73Q26.07-10.50 26.07-9.99L26.07-9.99L26.07-6.72Q26.07-6.21 26.30-5.98Q26.53-5.75 27.04-5.75L27.04-5.75L31.01-5.75L31.01 7.51Q31.01 8.02 31.24 8.25Q31.47 8.48 31.98 8.48L31.98 8.48ZM34.30 6.05L34.03 6.05L34.03-8.26L28.50-8.26L28.50-8.53L39.84-8.53L39.84-8.26L34.30-8.26L34.30 6.05Z"/></g>
<g transform="matrix(1 0 0 1 500 500)" id="607036">
<g style="" vector-effect="non-scaling-stroke">
		<g transform="matrix(1 0 0 1 -43.9985 0)">
<path style="stroke: none; stroke-width: 1; stroke-dasharray: none; stroke-linecap: butt; stroke-dashoffset: 0; stroke-linejoin: miter; stroke-miterlimit: 4; is-custom-font: none; font-file-url: none; fill: rgb(255,255,255); fill-rule: nonzero; opacity: 1;" transform=" translate(-15.0015, -15)" d="M 30.003 13.3516 V 15.8242 C 30.003 20.1374 28.6474 23.5852 25.9362 26.1676 C 23.2527 28.7225 19.836 30 15.6862 30 C 11.1768 30 7.42813 28.5577 4.44028 25.6731 C 1.48009 22.7885 0 19.2445 0 15.0412 C 0 10.8379 1.46626 7.28022 4.39878 4.36813 C 7.35897 1.45604 10.9693 0 15.2297 0 C 17.9409 0 20.417 0.604396 22.6579 1.81319 C 24.9264 3.02198 26.6832 4.61538 27.9281 6.59341 L 22.2844 9.80769 C 21.6481 8.81868 20.6936 8.00824 19.421 7.37637 C 18.1761 6.74451 16.7652 6.42857 15.1882 6.42857 C 12.726 6.42857 10.6788 7.23901 9.04655 8.85989 C 7.44196 10.4808 6.63967 12.5549 6.63967 15.0824 C 6.63967 17.5824 7.46963 19.6291 9.12954 21.2225 C 10.7895 22.7885 13.0027 23.5714 15.7692 23.5714 C 19.6147 23.5714 22.0907 22.0879 23.1973 19.1209 H 15.4372 V 13.3516 H 30.003 Z" stroke-linecap="round"/>
</g>
		<g transform="matrix(1 0 0 1 -14.6718 0)">
<path style="stroke: none; stroke-width: 1; stroke-dasharray: none; stroke-linecap: butt; stroke-dashoffset: 0; stroke-linejoin: miter; stroke-miterlimit: 4; is-custom-font: none; font-file-url: none; fill: rgb(255,255,255); fill-rule: nonzero; opacity: 1;" transform=" translate(-44.3282, -15)" d="M 44.7432 0.576923 C 47.5927 0.576923 49.9996 1.53846 51.9638 3.46154 C 53.9281 5.38462 54.9102 7.71978 54.9102 10.467 C 54.9102 13.2143 53.9281 15.5495 51.9638 17.4725 C 49.9996 19.3956 47.5927 20.3571 44.7432 20.3571 H 40.3859 V 29.4231 H 33.7462 V 0.576923 H 44.7432 Z M 44.7432 14.1758 C 45.7668 14.1758 46.6106 13.8187 47.2746 13.1044 C 47.9385 12.3901 48.2705 11.511 48.2705 10.467 C 48.2705 9.42308 47.9385 8.54396 47.2746 7.82967 C 46.6106 7.11538 45.7668 6.75824 44.7432 6.75824 H 40.3859 V 14.1758 H 44.7432 Z" stroke-linecap="round"/>
</g>
		<g transform="matrix(1 0 0 1 7.5328 0)">
<path style="stroke: none; stroke-width: 1; stroke-dasharray: none; stroke-linecap: butt; stroke-dashoffset: 0; stroke-linejoin: miter; stroke-miterlimit: 4; is-custom-font: none; font-file-url: none; fill: rgb(255,255,255); fill-rule: nonzero; opacity: 1;" transform=" translate(-66.5328, -15)" d="M 77.3223 0.576923 V 6.92308 H 69.8527 V 29.4231 H 63.213 V 6.92308 H 55.7434 V 0.576923 H 77.3223 Z" stroke-linecap="round"/>
</g>
		<g transform="matrix(1 0 0 1 27.0466 2.1016)">
<path style="stroke: none; stroke-width: 1; stroke-dasharray: none; stroke-linecap: butt; stroke-dashoffset: 0; stroke-linejoin: miter; stroke-miterlimit: 4; is-custom-font: none; font-file-url: none; fill: rgb(255,255,255); fill-rule: nonzero; opacity: 1;" transform=" translate(-86.0466, -17.1016)" d="M 78.162 20.0687 V 14.1346 H 93.9312 V 20.0687 H 78.162 Z" stroke-linecap="round"/>
</g>
		<g transform="matrix(1 0 0 1 48.6255 0.2884)">
<path style="stroke: none; stroke-width: 1; stroke-dasharray: none; stroke-linecap: butt; stroke-dashoffset: 0; stroke-linejoin: miter; stroke-miterlimit: 4; is-custom-font: none; font-file-url: none; fill: rgb(255,255,255); fill-rule: nonzero; opacity: 1;" transform=" translate(-107.6255, -15.2885)" d="M 111.817 12.2802 C 113.67 12.9121 115.164 13.9423 116.299 15.3709 C 117.433 16.772 118 18.4341 118 20.3571 C 118 23.3791 116.976 25.7418 114.929 27.4451 C 112.882 29.1484 110.378 30 107.418 30 C 105.122 30 103.061 29.478 101.235 28.4341 C 99.4366 27.3901 98.1087 25.8516 97.251 23.8187 L 102.978 20.522 C 103.697 22.5549 105.177 23.5714 107.418 23.5714 C 108.718 23.5714 109.7 23.2692 110.364 22.6648 C 111.028 22.0604 111.36 21.2912 111.36 20.3571 C 111.36 19.4231 111.028 18.6538 110.364 18.0495 C 109.7 17.4451 108.718 17.1429 107.418 17.1429 H 106.049 L 103.517 13.3929 L 108.787 6.75824 H 98.164 V 0.576923 H 116.838 V 5.93407 L 111.817 12.2802 Z" stroke-linecap="round"/>
</g>
</g>
</g>
</svg>